<?xml version="1.0" encoding="UTF-8"?>
<svg id="Layer_1" data-name="Layer 1" xmlns="http://www.w3.org/2000/svg" xmlns:xlink="http://www.w3.org/1999/xlink" viewBox="0 0 382.33 192.76">
  <defs>
    <clipPath id="clippath">
      <path d="M128.88,70.58c-1.49-2.21-3.68-3.93-6.57-5.16-2.35-.99-6.36-1.48-12.06-1.48h-9.36l-7.3,53.41h10.06l3.1-22.56c6.86-.1,11.77-.75,14.7-1.93,2.95-1.2,5.31-3.12,7.06-5.75,1.75-2.63,2.63-5.57,2.63-8.8,0-2.95-.76-5.53-2.26-7.74ZM118.63,83.64c-1.67,1.12-5.21,1.69-10.66,1.72l1.74-12.09c3.77,0,6.3.16,7.56.5,1.27.34,2.22.93,2.87,1.79.65.84.97,1.88.97,3.12,0,2.21-.83,3.86-2.48,4.97ZM140.65,62.59h9.67l-7.48,54.76h-9.67l7.48-54.76ZM186.56,77.83l-.75,5.57c-1.35-2.14-3.05-3.78-5.11-4.9-2.06-1.12-4.32-1.67-6.77-1.67-3.64,0-7.11.99-10.45,2.95-3.33,1.98-5.99,4.72-7.97,8.24-1.96,3.52-2.95,7.24-2.95,11.13,0,5.11,1.54,9.59,4.63,13.44,3.1,3.85,7.25,5.78,12.5,5.78,2.27,0,4.33-.39,6.15-1.17,1.83-.78,3.81-2.14,5.91-4.11l-.57,4.25h9.59l5.52-39.52h-9.72ZM182.73,103.12c-1.2,2.27-2.69,3.94-4.48,5.01-1.77,1.05-3.86,1.59-6.25,1.59-2.87,0-5.23-.94-7.04-2.84-1.83-1.88-2.74-4.38-2.74-7.47,0-4.02,1.2-7.3,3.62-9.85,2.4-2.53,5.34-3.81,8.8-3.81,2.97,0,5.37.96,7.19,2.86,1.82,1.92,2.71,4.43,2.71,7.56,0,2.37-.6,4.69-1.8,6.95ZM206.65,77.84h9.67l-.55,4.01c3.71-3.35,7.56-5.03,11.56-5.03,3.42,0,6.22,1.08,8.4,3.25,2.18,2.17,3.27,4.9,3.27,8.2,0,1.55-.21,3.87-.62,6.94l-3.02,22.13h-9.67l2.95-21.6c.29-2.23.44-3.9.44-5.01,0-1.6-.46-2.83-1.37-3.69-.91-.86-2.2-1.29-3.88-1.29s-3.26.56-4.88,1.69c-1.63,1.13-2.88,2.69-3.75,4.68s-1.68,5.74-2.41,11.24l-1.86,13.98h-9.67l5.4-39.51ZM282.09,70.58c-1.49-2.21-3.68-3.93-6.59-5.16-2.34-.99-6.35-1.48-12.04-1.48h-9.36l-7.3,53.41h10.06l3.1-22.56c6.85-.1,11.77-.75,14.7-1.93,2.95-1.2,5.31-3.12,7.04-5.75,1.75-2.63,2.63-5.57,2.63-8.8,0-2.95-.75-5.53-2.24-7.74ZM271.81,83.64c-1.66,1.12-5.21,1.69-10.65,1.72l1.74-12.09c3.77,0,6.28.16,7.56.5,1.27.34,2.22.93,2.87,1.79.65.84.97,1.88.97,3.12,0,2.21-.83,3.86-2.5,4.97ZM321.94,77.83l-.76,5.57c-1.35-2.14-3.05-3.78-5.11-4.9-2.06-1.12-4.32-1.67-6.75-1.67-3.65,0-7.12.99-10.47,2.95-3.33,1.98-5.99,4.72-7.95,8.24-1.98,3.52-2.97,7.24-2.97,11.13,0,5.11,1.54,9.59,4.64,13.44,3.08,3.85,7.24,5.78,12.48,5.78,2.27,0,4.33-.39,6.17-1.17,1.82-.78,3.8-2.14,5.91-4.11l-.58,4.25h9.59l5.52-39.52h-9.7ZM318.1,103.12c-1.2,2.27-2.69,3.94-4.48,5.01-1.77,1.05-3.85,1.59-6.25,1.59-2.87,0-5.23-.94-7.04-2.84-1.83-1.88-2.74-4.38-2.74-7.47,0-4.02,1.2-7.3,3.62-9.85,2.4-2.53,5.34-3.81,8.81-3.81,2.97,0,5.36.96,7.17,2.86,1.82,1.92,2.73,4.43,2.73,7.56,0,2.37-.6,4.69-1.82,6.95ZM342.94,62.59h9.67l-7.48,54.76h-9.67l7.48-54.76ZM83.12,68.58c-2.24-2.55-5.38-4.13-8.75-4.4l-.66,4.49c-.22,1.53-1.61,2.69-3.22,2.69h-3.99c-.97,0-1.88-.42-2.5-1.13-.58-.69-.85-1.57-.72-2.44l.53-3.66h-13.05l-.66,4.54c-.22,1.53-1.61,2.69-3.22,2.69h-3.99c-.97,0-1.88-.42-2.5-1.13-.58-.69-.85-1.57-.72-2.44l.53-3.66h-1.02c-6.45,0-11.97,4.82-12.85,11.22l-3.79,27.5c-.5,3.71.61,7.47,3.08,10.3,2.46,2.82,6.03,4.44,9.78,4.44h34.15c6.46,0,11.99-4.82,12.86-11.21l3.77-27.51c.52-3.71-.61-7.47-3.07-10.3ZM77.4,77.67l-3.79,27.5c-.28,2.03-2.02,3.55-4.07,3.55h-34.15c-1.21,0-2.32-.5-3.1-1.41-.8-.91-1.14-2.07-.97-3.26l3.77-27.5c.28-2.02,2.03-3.55,4.07-3.55h34.16c1.21,0,2.3.5,3.08,1.41.8.91,1.14,2.07.99,3.26ZM46.59,85.35h-5.7c-.86,0-1.53-.76-1.41-1.62l.63-4.58c.1-.7.7-1.23,1.41-1.23h5.7c.86,0,1.53.76,1.41,1.62l-.63,4.58c-.1.7-.7,1.23-1.41,1.23ZM58.22,85.35h-5.7c-.86,0-1.53-.76-1.41-1.62l.63-4.58c.1-.7.7-1.23,1.41-1.23h5.7c.86,0,1.53.76,1.41,1.62l-.63,4.58c-.1.7-.7,1.23-1.41,1.23ZM69.85,85.35h-5.7c-.86,0-1.53-.76-1.41-1.62l.63-4.58c.1-.7.7-1.23,1.41-1.23h5.7c.86,0,1.53.76,1.41,1.62l-.63,4.58c-.1.7-.7,1.23-1.41,1.23ZM45.24,94.59h-5.7c-.86,0-1.53-.76-1.41-1.62l.63-4.58c.1-.7.7-1.23,1.41-1.23h5.7c.86,0,1.53.76,1.41,1.62l-.63,4.58c-.1.7-.7,1.23-1.41,1.23ZM56.87,94.59h-5.7c-.86,0-1.53-.76-1.41-1.62l.63-4.58c.1-.7.7-1.23,1.41-1.23h5.7c.86,0,1.53.76,1.41,1.62l-.63,4.58c-.1.7-.7,1.23-1.41,1.23ZM68.5,94.59h-5.7c-.86,0-1.53-.76-1.41-1.62l.63-4.58c.1-.7.7-1.23,1.41-1.23h5.7c.86,0,1.53.76,1.41,1.62l-.63,4.58c-.1.7-.7,1.23-1.41,1.23ZM43.93,103.81h-5.7c-.86,0-1.53-.76-1.41-1.62l.63-4.58c.1-.7.7-1.23,1.41-1.23h5.7c.86,0,1.53.76,1.41,1.62l-.63,4.58c-.1.7-.7,1.23-1.41,1.23ZM55.57,103.81h-5.7c-.86,0-1.53-.76-1.41-1.62l.63-4.58c.1-.7.7-1.23,1.41-1.23h5.7c.86,0,1.53.76,1.41,1.62l-.63,4.58c-.1.7-.7,1.23-1.41,1.23ZM67.2,103.81h-5.7c-.86,0-1.53-.76-1.41-1.62l.63-4.58c.1-.7.7-1.23,1.41-1.23h5.7c.86,0,1.53.76,1.41,1.62l-.63,4.58c-.1.7-.7,1.23-1.41,1.23ZM46.87,69.58h-3.99c-.89,0-1.58-.72-1.47-1.53l1.52-10.37c.1-.67.72-1.17,1.47-1.17h3.99c.89,0,1.58.72,1.47,1.53l-1.52,10.37c-.1.67-.72,1.17-1.47,1.17ZM70.49,69.58h-3.99c-.89,0-1.58-.72-1.47-1.53l1.52-10.37c.1-.67.72-1.17,1.47-1.17h3.99c.89,0,1.58.72,1.47,1.53l-1.52,10.37c-.1.67-.72,1.17-1.47,1.17Z" style="fill: none; stroke-width: 0px;"/>
    </clipPath>
    <linearGradient id="linear-gradient" x1="0" y1="96.38" x2="382.33" y2="96.38" gradientUnits="userSpaceOnUse">
      <stop offset="0" stop-color="#70a5d9"/>
      <stop offset="0" stop-color="#5377aa"/>
      <stop offset="0" stop-color="#394e81"/>
      <stop offset="0" stop-color="#273063"/>
      <stop offset="0" stop-color="#1c1e51"/>
      <stop offset="0" stop-color="#18184b"/>
      <stop offset=".33" stop-color="#18427d"/>
      <stop offset=".62" stop-color="#1962a2"/>
      <stop offset=".85" stop-color="#1975b9"/>
      <stop offset="1" stop-color="#1a7dc2"/>
    </linearGradient>
  </defs>
  <g style="clip-path: url(#clippath);">
    <rect width="382.33" height="192.76" style="fill: url(#linear-gradient); stroke-width: 0px;"/>
  </g>
</svg>